<svg width="43" height="53" viewBox="0 0 43 53" fill="none" xmlns="http://www.w3.org/2000/svg">
<path d="M21.4 25.2999C23.4434 25.2999 25.1 23.6434 25.1 21.5999C25.1 19.5564 23.4434 17.8999 21.4 17.8999C19.3565 17.8999 17.7 19.5564 17.7 21.5999C17.7 23.6434 19.3565 25.2999 21.4 25.2999Z" stroke="#F6627B" stroke-width="3" stroke-linecap="round" stroke-linejoin="round"/>
<path d="M21.3999 50.9001V25.3" stroke="#F6627B" stroke-width="3" stroke-linecap="round" stroke-linejoin="round"/>
<path d="M29.4 30.6C32 28.4 33.5999 25.1 33.5999 21.4C33.5999 14.7 28.1 9.19995 21.4 9.19995C14.7 9.19995 9.19995 14.7 9.19995 21.4C9.19995 25.1 10.8 28.4 13.4 30.6" stroke="#F6627B" stroke-width="3" stroke-linecap="round" stroke-linejoin="round"/>
<path d="M31.7001 38.5C37.5001 35 41.4001 28.7 41.4001 21.4C41.4001 10.4 32.5001 1.5 21.5001 1.5C10.5001 1.5 1.6001 10.4 1.6001 21.4C1.6001 28.7 5.5001 35 11.3001 38.5" stroke="#F6627B" stroke-width="3" stroke-linecap="round" stroke-linejoin="round"/>
</svg>
