<svg width="46" height="42" viewBox="0 0 46 42" fill="none" xmlns="http://www.w3.org/2000/svg">
<path d="M44 11.6589C44 16.9768 34.3411 26.8528 34.3411 26.8528C34.3411 26.8528 24.6821 16.9768 24.6821 11.6589C24.6821 6.3411 29.0232 2 34.3411 2C39.6589 2 44 6.3411 44 11.6589Z" stroke="#F6627B" stroke-width="3" stroke-linecap="round" stroke-linejoin="round"/>
<path d="M34.3408 14.8063C36.1389 14.8063 37.5966 13.3486 37.5966 11.5505C37.5966 9.75232 36.1389 8.29464 34.3408 8.29464C32.5426 8.29464 31.085 9.75232 31.085 11.5505C31.085 13.3486 32.5426 14.8063 34.3408 14.8063Z" stroke="#F6627B" stroke-width="3" stroke-linecap="round" stroke-linejoin="round"/>
<path d="M21.3179 24.7909C21.3179 30.1087 11.6589 39.9847 11.6589 39.9847C11.6589 39.9847 2 30.1087 2 24.7909C2 19.473 6.34109 15.1319 11.6589 15.1319C16.9768 15.1319 21.3179 19.473 21.3179 24.7909Z" stroke="#F6627B" stroke-width="3" stroke-linecap="round" stroke-linejoin="round"/>
<path d="M11.6587 27.9379C13.4568 27.9379 14.9145 26.4803 14.9145 24.6821C14.9145 22.884 13.4568 21.4263 11.6587 21.4263C9.86051 21.4263 8.40283 22.884 8.40283 24.6821C8.40283 26.4803 9.86051 27.9379 11.6587 27.9379Z" stroke="#F6627B" stroke-width="3" stroke-linecap="round" stroke-linejoin="round"/>
<path d="M28.915 27.1783H27.8297C26.0933 27.1783 24.5739 28.5892 24.5739 30.4341C24.5739 32.1706 25.9848 33.6899 27.8297 33.6899H38.791C40.5274 33.6899 42.0468 35.1008 42.0468 36.9458C42.0468 38.6822 40.636 40.2016 38.791 40.2016H17.8452" stroke="#F6627B" stroke-width="3" stroke-linecap="round" stroke-linejoin="round"/>
</svg>
